# xmcd
#
# Track frame offsets:
#	150
#	29774
#	49340
#	71690
#	87878
#
# Disc length: 1479 seconds
#
# Revision: 0
# Processed by: cddbd v1.5.2PL0 Copyright (c) Steve Scherf et al.
# Submitted via: dBpowerAMP V4.0
#
DISCID=4305c505
DTITLE=Truckstop Souvenir - Truckstop Souvenir
DYEAR=2004
DGENRE=Country
TTITLE0=Texas Rain
TTITLE1=Leave Nothing Behind
TTITLE2=Your Daddy's Gun
TTITLE3=The River Is Wide
TTITLE4=Ancient As A Melody
EXTD=
EXTT0=
EXTT1=
EXTT2=
EXTT3=
EXTT4=
PLAYORDER=
